<?xml version="1.0" encoding="utf-8"?>
<!-- Generator: Adobe Illustrator 25.2.0, SVG Export Plug-In . SVG Version: 6.00 Build 0)  -->
<svg version="1.1" xmlns="http://www.w3.org/2000/svg" xmlns:xlink="http://www.w3.org/1999/xlink" x="0px" y="0px"
	 viewBox="0 0 100 100" style="enable-background:new 0 0 100 100;" xml:space="preserve">
<style type="text/css">
	.st0{fill:#FFFFFF;stroke:#FFFFFF;stroke-width:4;stroke-miterlimit:10;}
</style>
<g id="Layer_1">
	<path class="st0" d="M31.8,17.3v65.6c0,1.4-1.2,2.6-2.6,2.6h-8.6c-1.4,0-2.6-1.2-2.6-2.6V17.3c0-1.4,1.2-2.6,2.6-2.6h8.6
		C30.6,14.6,31.8,15.8,31.8,17.3z"/>
	<path class="st0" d="M56.9,17.1v65.6c0,1.4-1.2,2.6-2.6,2.6h-8.6c-1.4,0-2.6-1.2-2.6-2.6V17.1c0-1.4,1.2-2.6,2.6-2.6h8.6
		C55.7,14.5,56.9,15.7,56.9,17.1z"/>
	<path class="st0" d="M82,17.1v65.6c0,1.4-1.2,2.6-2.6,2.6h-8.6c-1.4,0-2.6-1.2-2.6-2.6V17.1c0-1.4,1.2-2.6,2.6-2.6h8.6
		C80.8,14.5,82,15.7,82,17.1z"/>
</g>
<g id="Layer_2">
</g>
</svg>
