<?xml version="1.0" encoding="utf-8"?>
<!-- Generator: Adobe Illustrator 25.2.0, SVG Export Plug-In . SVG Version: 6.00 Build 0)  -->
<svg version="1.1" xmlns="http://www.w3.org/2000/svg" xmlns:xlink="http://www.w3.org/1999/xlink" x="0px" y="0px"
	 viewBox="0 0 100 100" style="enable-background:new 0 0 100 100;" xml:space="preserve">
<style type="text/css">
	.st0{fill:#FFFFFF;stroke:#FFFFFF;stroke-width:4;stroke-miterlimit:10;}
</style>
<g id="Layer_1">
	<polygon class="st0" points="50,15 54.6,21.2 60.8,16.7 63.2,24 70.6,21.7 70.6,29.4 78.3,29.4 76,36.8 83.3,39.2 78.8,45.4 85,50 
		78.8,54.6 83.3,60.8 76,63.2 78.3,70.6 70.6,70.6 70.6,78.3 63.2,76 60.8,83.3 54.6,78.8 50,85 45.4,78.8 39.2,83.3 36.8,76 
		29.4,78.3 29.4,70.6 21.7,70.6 24,63.2 16.7,60.8 21.2,54.6 15,50 21.2,45.4 16.7,39.2 24,36.8 21.7,29.4 29.4,29.4 29.4,21.7 
		36.8,24 39.2,16.7 45.4,21.2 	"/>
</g>
<g id="Layer_2">
</g>
</svg>
